<svg xmlns="http://www.w3.org/2000/svg" viewBox="0 0 38 48"><defs><style>.cls-1,.cls-2{fill:none;stroke:#505050;stroke-width:2px;}.cls-1{stroke-miterlimit:10;}.cls-2{stroke-linejoin:round;}</style></defs><g id="레이어_2" data-name="레이어 2"><g id="icons"><path class="cls-1" d="M31,6h4a2,2,0,0,1,2,2V45a2,2,0,0,1-2,2H3a2,2,0,0,1-2-2V8A2,2,0,0,1,3,6H7"/><polyline class="cls-1" points="31 10 33 10 33 43 5 43 5 10 7 10"/><path class="cls-1" d="M26,5H23a4,4,0,0,0-8,0H12A3,3,0,0,0,9,8v3H29V8A3,3,0,0,0,26,5Z"/><line class="cls-1" x1="19" y1="4" x2="19" y2="6"/><polyline class="cls-2" points="11 28 17 33 27 20"/></g></g></svg>