<svg xmlns="http://www.w3.org/2000/svg" viewBox="0 0 48 34"><defs><style>.cls-1{fill:none;stroke:#505050;stroke-miterlimit:10;stroke-width:2px;}</style></defs><g id="레이어_2" data-name="레이어 2"><g id="icons"><polyline class="cls-1" points="48 31 29 31 29 1 26 1"/><line class="cls-1" x1="29" y1="30" x2="25" y2="30"/><polyline class="cls-1" points="2 24 2 16 12 16 16 20 29 20"/><path class="cls-1" d="M9,29a4,4,0,1,1-4-4A4,4,0,0,1,9,29Z"/><path class="cls-1" d="M25,29a4,4,0,1,1-4-4A4,4,0,0,1,25,29Z"/><path class="cls-1" d="M26.14,20.48S25,11,17.9,6H8V16"/><line class="cls-1" x1="17" y1="30" x2="9" y2="30"/><line class="cls-1" x1="8" y1="6" x2="6" y2="6"/><polyline class="cls-1" points="31 17 44 17 44 29"/><polyline class="cls-1" points="31 7 41 7 41 17"/></g></g></svg>