<svg xmlns="http://www.w3.org/2000/svg" viewBox="0 0 46.71 44.71"><defs><style>.cls-1{fill:none;stroke:#505050;stroke-linejoin:round;stroke-width:2px;}</style></defs><g id="레이어_2" data-name="레이어 2"><g id="icons"><line class="cls-1" x1="20" y1="20" x2="20" y2="40"/><line class="cls-1" x1="39" y1="19" x2="39" y2="11"/><polygon class="cls-1" points="20 1 1 10 1 11 20 20 39 11 39 10 20 1"/><line class="cls-1" x1="30" y1="15" x2="10.22" y2="5.63"/><polyline class="cls-1" points="24 38.1 20 40 1 31 1 11"/><path class="cls-1" d="M45,31A10,10,0,1,1,35,21,10,10,0,0,1,45,31Z"/><line class="cls-1" x1="30" y1="27" x2="30" y2="35"/><line class="cls-1" x1="33" y1="27" x2="33" y2="35"/><line class="cls-1" x1="37" y1="27" x2="37" y2="35"/><line class="cls-1" x1="40" y1="27" x2="40" y2="35"/><line class="cls-1" x1="41" y1="39" x2="46" y2="44"/></g></g></svg>