<svg xmlns="http://www.w3.org/2000/svg" viewBox="0 0 36.16 48"><defs><style>.cls-1{fill:none;stroke:#505150;stroke-miterlimit:10;stroke-width:2px;}</style></defs><g id="레이어_2" data-name="레이어 2"><g id="icons"><polyline class="cls-1" points="12.16 33 12.16 25 35.16 25 35.16 44 12.16 44 12.16 39"/><polyline class="cls-1" points="20.16 25 20.16 29 27.16 29 27.16 25"/><path class="cls-1" d="M33.16,25l-2.24-3.73a4,4,0,0,0-2.16-1.74L24.16,18"/><path class="cls-1" d="M12.16,18,6.77,20.31a4,4,0,0,0-2.19,2.33l-3.4,9.52A3,3,0,0,0,3,36l14.16,5"/><line class="cls-1" x1="19.16" y1="37" x2="8.16" y2="31"/><line class="cls-1" x1="8.16" y1="38" x2="8.16" y2="48"/><line class="cls-1" x1="27.16" y1="44" x2="27.16" y2="48"/><path class="cls-1" d="M24.16,11v2.76a3,3,0,0,1-.88,2.12l-2.53,2.53a2,2,0,0,1-1.42.59H17a2,2,0,0,1-1.41-.59L13,15.88a3,3,0,0,1-.88-2.12V6a5,5,0,0,1,5-5h2a5,5,0,0,1,5,5V9"/><line class="cls-1" x1="15.16" y1="9" x2="31.16" y2="9"/><line class="cls-1" x1="32.16" y1="40" x2="30.16" y2="40"/><line class="cls-1" x1="29.16" y1="40" x2="27.16" y2="40"/></g></g></svg>